<svg width="64" height="64" viewBox="0 0 64 64" fill="none" xmlns="http://www.w3.org/2000/svg">
<g filter="url(#filter0_bd_862_22954)">
<rect x="60" y="60" width="56" height="56" rx="28" transform="rotate(-180 60 60)" fill="black" fill-opacity="0.5" shape-rendering="crispEdges"/>
</g>
<path fill-rule="evenodd" clip-rule="evenodd" d="M31.2929 22.1265C31.6834 21.736 32.3166 21.736 32.7071 22.1265L41.0404 30.4599C41.431 30.8504 41.431 31.4836 41.0404 31.8741C40.6499 32.2646 40.0168 32.2646 39.6262 31.8741L32 24.2479L24.3738 31.8741C23.9833 32.2646 23.3501 32.2646 22.9596 31.8741C22.569 31.4836 22.569 30.8504 22.9596 30.4599L31.2929 22.1265Z" fill="white"/>
<path fill-rule="evenodd" clip-rule="evenodd" d="M32 21.8337C32.5523 21.8337 33 22.2815 33 22.8337L33 41.1671C33 41.7194 32.5523 42.1671 32 42.1671C31.4477 42.1671 31 41.7194 31 41.1671L31 22.8337C31 22.2815 31.4477 21.8337 32 21.8337Z" fill="white"/>
<defs>
<filter id="filter0_bd_862_22954" x="-6" y="-6" width="76" height="76" filterUnits="userSpaceOnUse" color-interpolation-filters="sRGB">
<feFlood flood-opacity="0" result="BackgroundImageFix"/>
<feGaussianBlur in="BackgroundImageFix" stdDeviation="5"/>
<feComposite in2="SourceAlpha" operator="in" result="effect1_backgroundBlur_862_22954"/>
<feColorMatrix in="SourceAlpha" type="matrix" values="0 0 0 0 0 0 0 0 0 0 0 0 0 0 0 0 0 0 127 0" result="hardAlpha"/>
<feOffset/>
<feGaussianBlur stdDeviation="2"/>
<feComposite in2="hardAlpha" operator="out"/>
<feColorMatrix type="matrix" values="0 0 0 0 0 0 0 0 0 0 0 0 0 0 0 0 0 0 0.1 0"/>
<feBlend mode="normal" in2="effect1_backgroundBlur_862_22954" result="effect2_dropShadow_862_22954"/>
<feBlend mode="normal" in="SourceGraphic" in2="effect2_dropShadow_862_22954" result="shape"/>
</filter>
</defs>
</svg>
